<?xml version="1.0" encoding="UTF-8"?>
<svg width="64" height="16" version="1.1" viewBox="0 0 16.933 4.2333" xmlns="http://www.w3.org/2000/svg" xmlns:cc="http://creativecommons.org/ns#" xmlns:dc="http://purl.org/dc/elements/1.1/" xmlns:rdf="http://www.w3.org/1999/02/22-rdf-syntax-ns#" xmlns:xlink="http://www.w3.org/1999/xlink">
 <defs>
  <linearGradient id="linearGradient842" x1=".29633" x2="16.637" y1="2.1167" y2="2.1167" gradientUnits="userSpaceOnUse">
   <stop stop-color="#2196f3" offset="0"/>
   <stop stop-color="#e91e63" offset="1"/>
  </linearGradient>
 </defs>
 <metadata>
  <rdf:RDF>
   <cc:Work rdf:about="">
    <dc:format>image/svg+xml</dc:format>
    <dc:type rdf:resource="http://purl.org/dc/dcmitype/StillImage"/>
    <dc:title/>
   </cc:Work>
  </rdf:RDF>
 </metadata>
 <g fill="url(#linearGradient842)" style="mix-blend-mode:normal" aria-label="Yasaron">
  <path d="m2.4299 0.60748q0.097367 0 0.17357 0.0762 0.080433 0.071967 0.080433 0.18627 0 0.0381-0.0127 0.080434-0.00847 0.0381-0.033867 0.0762l-0.96097 1.3758 0.0762-0.2921v1.215q0 0.11007-0.0762 0.18627-0.071967 0.071967-0.16933 0.071967-0.10583 0-0.18203-0.071967-0.071967-0.0762-0.071967-0.18627v-1.1811l0.033868 0.13547-0.9144-1.215q-0.042333-0.055033-0.059267-0.10583-0.016933-0.0508-0.016933-0.093134 0-0.1143 0.0889-0.18627 0.0889-0.071967 0.18203-0.071967 0.11853 0 0.20743 0.11853l0.8128 1.1218-0.11853-0.016933 0.7493-1.0964q0.0889-0.127 0.21167-0.127z"/>
  <path d="m4.7413 1.2764q0.11007 0 0.18203 0.071967 0.071967 0.071967 0.071967 0.18627v1.7907q0 0.11007-0.071967 0.18627-0.071967 0.071967-0.18203 0.071967-0.11007 0-0.18203-0.071967-0.071967-0.0762-0.071967-0.18627v-0.20743l0.093134 0.0381q0 0.055033-0.059267 0.13547-0.059267 0.0762-0.16087 0.1524-0.1016 0.0762-0.2413 0.13123-0.13547 0.0508-0.29633 0.0508-0.2921 0-0.52917-0.14817-0.23707-0.1524-0.37677-0.41487-0.13547-0.2667-0.13547-0.6096 0-0.34713 0.13547-0.6096 0.1397-0.2667 0.37253-0.41487 0.23283-0.1524 0.51647-0.1524 0.18203 0 0.33443 0.055033 0.1524 0.055033 0.26247 0.1397 0.1143 0.084667 0.17357 0.17357 0.0635 0.084667 0.0635 0.14393l-0.1524 0.055034v-0.30903q0-0.11007 0.071967-0.18203 0.071967-0.0762 0.18203-0.0762zm-0.85513 1.8838q0.18627 0 0.32597-0.093133 0.1397-0.093134 0.2159-0.254 0.080433-0.16087 0.080433-0.35983 0-0.2032-0.080433-0.36407-0.0762-0.16087-0.2159-0.254-0.1397-0.093133-0.32597-0.093133-0.18203 0-0.32173 0.093133t-0.22013 0.254q-0.0762 0.16087-0.0762 0.36407 0 0.19897 0.0762 0.35983 0.080433 0.16087 0.22013 0.254 0.1397 0.093133 0.32173 0.093133z"/>
  <path d="m5.4144 3.2322q-0.042333-0.059267-0.0381-0.1524 0.00423-0.093133 0.11007-0.16087 0.067733-0.042333 0.14393-0.033867 0.0762 0.00423 0.14817 0.0762 0.12277 0.12277 0.25823 0.1905 0.13547 0.067733 0.33867 0.067733 0.0635-0.00423 0.1397-0.016933 0.0762-0.016933 0.13123-0.067733 0.059267-0.055033 0.059267-0.1651 0-0.093133-0.0635-0.14817-0.0635-0.055033-0.16933-0.093133-0.1016-0.038101-0.2286-0.071967-0.13123-0.0381-0.27093-0.084667-0.13547-0.046567-0.24977-0.11853-0.1143-0.0762-0.18627-0.19897-0.071967-0.12277-0.071967-0.30903 0-0.21167 0.11853-0.35983 0.11853-0.14817 0.3048-0.2286 0.1905-0.080434 0.39793-0.080434 0.13123 0 0.27517 0.033867 0.14393 0.029633 0.27517 0.1016 0.13123 0.067734 0.22013 0.18203 0.046567 0.0635 0.055034 0.1524 0.00847 0.0889-0.080433 0.16087-0.0635 0.0508-0.14817 0.046567-0.084668-0.0084667-0.1397-0.059267-0.071967-0.093134-0.19473-0.14817-0.11853-0.055034-0.27517-0.055034-0.0635 0-0.1397 0.016933-0.071967 0.0127-0.127 0.0635-0.055033 0.046567-0.055033 0.1524 0 0.097367 0.0635 0.15663 0.0635 0.055033 0.16933 0.093133 0.11007 0.033867 0.23283 0.067733 0.127 0.033867 0.25823 0.080434 0.13123 0.046567 0.2413 0.12277 0.11007 0.0762 0.1778 0.19897 0.067733 0.11853 0.067733 0.3048 0 0.2159-0.127 0.3683-0.127 0.1524-0.3175 0.23283-0.1905 0.0762-0.38947 0.0762-0.24977 0-0.49953-0.084667-0.24977-0.0889-0.41487-0.30903z"/>
  <path d="m9.4742 1.2764q0.11007 0 0.18203 0.071967 0.071967 0.071967 0.071967 0.18627v1.7907q0 0.11007-0.071967 0.18627-0.071967 0.071967-0.18203 0.071967-0.11007 0-0.18203-0.071967-0.071967-0.0762-0.071967-0.18627v-0.20743l0.093133 0.0381q0 0.055033-0.059267 0.13547-0.059267 0.0762-0.16087 0.1524-0.1016 0.0762-0.2413 0.13123-0.13547 0.0508-0.29633 0.0508-0.2921 0-0.52917-0.14817-0.23707-0.1524-0.37677-0.41487-0.13547-0.2667-0.13547-0.6096 0-0.34713 0.13547-0.6096 0.1397-0.2667 0.37253-0.41487 0.23283-0.1524 0.51647-0.1524 0.18203 0 0.33443 0.055033 0.1524 0.055033 0.26247 0.1397 0.1143 0.084667 0.17357 0.17357 0.0635 0.084667 0.0635 0.14393l-0.1524 0.055034v-0.30903q0-0.11007 0.071967-0.18203 0.071967-0.0762 0.18203-0.0762zm-0.85513 1.8838q0.18627 0 0.32597-0.093133 0.1397-0.093134 0.2159-0.254 0.080433-0.16087 0.080433-0.35983 0-0.2032-0.080433-0.36407-0.0762-0.16087-0.2159-0.254-0.1397-0.093133-0.32597-0.093133-0.18203 0-0.32173 0.093133t-0.22013 0.254q-0.0762 0.16087-0.0762 0.36407 0 0.19897 0.0762 0.35983 0.080433 0.16087 0.22013 0.254 0.1397 0.093133 0.32173 0.093133z"/>
  <path d="m10.533 3.5835q-0.11007 0-0.18203-0.071967-0.07197-0.0762-0.07197-0.18627v-1.7484q0-0.11007 0.07197-0.18203 0.07197-0.0762 0.18203-0.0762 0.11007 0 0.18203 0.0762 0.07197 0.071967 0.07197 0.18203v0.39793l-0.02963-0.28363q0.04657-0.1016 0.11853-0.1778 0.0762-0.080433 0.16933-0.13123 0.09313-0.055033 0.19897-0.080433 0.10583-0.0254 0.21167-0.0254 0.127 0 0.21167 0.071967 0.0889 0.071967 0.0889 0.16933 0 0.1397-0.07197 0.2032-0.07197 0.059267-0.15663 0.059267-0.08043 0-0.14817-0.029633-0.0635-0.029633-0.14817-0.029633-0.0762 0-0.15663 0.0381-0.0762 0.033867-0.14393 0.11007-0.0635 0.0762-0.10583 0.1905-0.0381 0.11007-0.0381 0.26247v1.0033q0 0.11007-0.07197 0.18627-0.07197 0.071967-0.18203 0.071967z"/>
  <path d="m14.22 2.4532q0 0.34713-0.15663 0.61383-0.1524 0.26247-0.41487 0.41063-0.25823 0.14817-0.57997 0.14817t-0.5842-0.14817q-0.25823-0.14817-0.41487-0.41063-0.1524-0.2667-0.1524-0.61383t0.1524-0.6096q0.15663-0.2667 0.41487-0.41487 0.26247-0.1524 0.5842-0.1524t0.57997 0.1524q0.26247 0.14817 0.41487 0.41487 0.15663 0.26247 0.15663 0.6096zm-0.508 0q0-0.2159-0.0889-0.37253-0.08467-0.16087-0.23283-0.24977-0.14393-0.0889-0.32173-0.0889t-0.32597 0.0889q-0.14393 0.0889-0.23283 0.24977-0.08467 0.15663-0.08467 0.37253 0 0.21167 0.08467 0.37253 0.0889 0.15663 0.23283 0.24553 0.14817 0.0889 0.32597 0.0889t0.32173-0.0889q0.14817-0.0889 0.23283-0.24553 0.0889-0.16087 0.0889-0.37253z"/>
  <path d="m15.875 1.2764q0.31327 0 0.47413 0.13123 0.1651 0.13123 0.22437 0.35137 0.0635 0.2159 0.0635 0.4826v1.0837q0 0.11007-0.07197 0.18627-0.07197 0.071967-0.18203 0.071967-0.11007 0-0.18203-0.071967-0.07197-0.0762-0.07197-0.18627v-1.0837q0-0.1397-0.0381-0.24977-0.03387-0.1143-0.127-0.18203-0.09313-0.067733-0.2667-0.067733-0.16933 0-0.28787 0.067733-0.1143 0.067733-0.1778 0.18203-0.05927 0.11007-0.05927 0.24977v1.0837q0 0.11007-0.07197 0.18627-0.07197 0.071967-0.18203 0.071967-0.11007 0-0.18203-0.071967-0.07197-0.0762-0.07197-0.18627v-1.7484q0-0.11007 0.07197-0.18203 0.07197-0.0762 0.18203-0.0762 0.11007 0 0.18203 0.0762 0.07197 0.071967 0.07197 0.18203v0.18203l-0.0635-0.0127q0.0381-0.071967 0.11007-0.1524 0.07197-0.084667 0.16933-0.15663 0.09737-0.071967 0.22013-0.1143 0.12277-0.046567 0.2667-0.046567z"/>
 </g>
</svg>
